# xmcd
#
# Track frame offsets:
#	182
#	24040
#	39037
#	59655
#	79785
#	101047
#	124975
#	148282
#	176780
#	188542
#	211292
#	234002
#	252962
#	271225
#	290532
#	311170
#	334380
#
# Disc length: 4721
#
# Revision: 3
# Processed by: cddbd v1.5.1PL0 Copyright (c) Steve Scherf et al.
# Submitted via: DiscPlay 4.0.3
# Normalized: r1:TDELIM( - ),TSWAP
#
DISCID=f5126f11
DTITLE=Various Artist - Stormy Monday (17 Classic New Blues Tracks)
DYEAR=1900
DGENRE=
TTITLE0=B.B. King and Robert Cry - Playin' With My Friends
TTITLE1=John Lee Hooker and Bonnie Raitt - I'm In The Mood
TTITLE2=Buddy Guy - Where Is The Next One Coming From
TTITLE3=Gary Moore - Cold Day In Hell
TTITLE4=Otis rush - Crosscut Saw
TTITLE5=John Mayall - Undercover Agent For The Blues
TTITLE6=William Clarke - The Work Song
TTITLE7=Johnny Winter - Life Is Hard
TTITLE8=Snooks Eagli - You Give Me Nothing But The Blues
TTITLE9=Robert Ward - Lord Have Mercy On Me
TTITLE10=Pops Staples - Down In Mississippi
TTITLE11=B.B. King - I'm Movin' On
TTITLE12=Walter Woflman Washington - Ain't No Love In The Heart Of The City
TTITLE13=Tinsley ellis - Sign Of The Blues
TTITLE14=John Lee Hooker - Boogie At The Russian Hill
TTITLE15=Joe Louis Walker - Dead Sea
TTITLE16=Kinsey Report - Full Moon On Main Street
EXTD=
EXTT0=
EXTT1=
EXTT2=
EXTT3=
EXTT4=
EXTT5=
EXTT6=
EXTT7=
EXTT8=
EXTT9=
EXTT10=
EXTT11=
EXTT12=
EXTT13=
EXTT14=
EXTT15=
EXTT16=
PLAYORDER=
